<svg width="18" height="18" viewBox="0 0 18 18" fill="none" xmlns="http://www.w3.org/2000/svg">
<path d="M2.82422 13.8711C1.08105 13.8711 0.217773 13.0078 0.217773 11.2979L0.217773 2.89746C0.217773 1.1875 1.08105 0.324219 2.82422 0.324219L11.1582 0.324219C12.8848 0.324219 13.7563 1.1875 13.7563 2.89746L13.7563 4.16748L15.1841 4.16748C16.9106 4.16748 17.7822 5.03076 17.7822 6.74072L17.7822 15.1411C17.7822 16.8511 16.9106 17.7144 15.1841 17.7144L6.8501 17.7144C5.10693 17.7144 4.24365 16.8511 4.24365 15.1411L4.24365 13.8711L2.82422 13.8711ZM2.84082 12.5347L4.24365 12.5347L4.24365 6.74072C4.24365 5.02246 5.10693 4.16748 6.8501 4.16748L12.4199 4.16748L12.4199 2.97217C12.4199 2.10889 11.9551 1.66064 11.1333 1.66064L2.84082 1.66064C2.01074 1.66064 1.5542 2.10889 1.5542 2.97217L1.5542 11.2231C1.5542 12.0864 2.01074 12.5347 2.84082 12.5347ZM11.4487 14.3857C11.5981 14.3857 11.7144 14.2695 11.7559 14.1118C12.229 11.5967 12.4614 11.1235 15.0762 10.7749C15.2422 10.7583 15.3584 10.6255 15.3584 10.4595C15.3584 10.3018 15.2422 10.1772 15.0762 10.1523C12.4697 9.79541 12.1211 9.29736 11.7559 6.83203C11.7227 6.66602 11.5981 6.5415 11.4487 6.5415C11.2827 6.5415 11.1665 6.65771 11.1167 6.82373C10.6519 9.34717 10.4194 9.79541 7.81299 10.1523C7.63867 10.1772 7.52246 10.3018 7.52246 10.4595C7.52246 10.6255 7.63867 10.75 7.81299 10.7749C10.4277 11.0405 10.7598 11.5967 11.1167 14.1035C11.1499 14.2695 11.2661 14.3857 11.4487 14.3857ZM8.07031 15.7803C8.19482 15.7803 8.28613 15.7056 8.31934 15.5894C8.54346 14.3359 8.46045 14.2861 9.82178 14.0786C9.93799 14.0537 10.0293 13.9624 10.0293 13.8462C10.0293 13.7217 9.93799 13.6304 9.82178 13.6138C8.46875 13.3813 8.54346 13.3232 8.31934 12.1113C8.28613 11.9868 8.20312 11.8955 8.07031 11.8955C7.9541 11.8955 7.87109 11.9785 7.82959 12.1113C7.58887 13.3232 7.69678 13.3813 6.33545 13.6138C6.21094 13.6304 6.12793 13.7217 6.12793 13.8462C6.12793 13.979 6.21094 14.0537 6.35205 14.0786C7.69678 14.2861 7.58887 14.3359 7.82959 15.5645C7.87109 15.6973 7.9458 15.7803 8.07031 15.7803Z" fill="url(#paint0_linear_6_482)" style="mix-blend-mode:overlay"/>
<defs>
<linearGradient id="paint0_linear_6_482" x1="9" y1="-1" x2="9" y2="19" gradientUnits="userSpaceOnUse">
<stop stop-color="white" stop-opacity="0.8"/>
<stop offset="1" stop-color="white" stop-opacity="0.3"/>
</linearGradient>
</defs>
</svg>
