<svg width="36" height="41" viewBox="0 0 36 41" fill="none" xmlns="http://www.w3.org/2000/svg">
<path d="M26.5568 34.8233C16.0176 35.4526 8.44317 29.2231 0.5 23.2492V38.3841C0.501797 38.9448 0.722897 39.4819 1.11504 39.8782C1.50718 40.2747 2.03851 40.4982 2.59308 40.5H33.4071C33.9616 40.4982 34.4929 40.2745 34.8851 39.8782C35.2772 39.4817 35.4982 38.9446 35.5 38.3841V32.9564C33.0153 33.3686 31.1645 34.5481 26.5568 34.8233Z" fill="black"/>
<path d="M30.0987 4.51706H27.7153C26.8561 4.51706 26.1597 5.22115 26.1597 6.0897V7.87035L19.4804 1.11756C19.0872 0.72204 18.555 0.5 18.0003 0.5C17.4456 0.5 16.9135 0.72204 16.5203 1.11756L1.9814 15.8167C1.09419 16.8142 0.571422 18.0886 0.5 19.4281V22.0172C8.44312 27.9914 18.0834 31.2104 27.9838 31.1943C30.5016 31.1948 33.0153 30.9879 35.5 30.5757V19.4281C35.4278 18.089 34.9056 16.8149 34.0195 15.8167L31.6544 13.4255V6.0897C31.6544 5.22115 30.958 4.51706 30.0987 4.51706Z" fill="black"/>
</svg>
