<svg width="53" height="47" viewBox="0 0 53 47" fill="none" xmlns="http://www.w3.org/2000/svg">
<path d="M45.5861 6.99626L43.0465 19.8493C43.0413 19.8751 43.0433 19.9016 43.052 19.9264C43.0605 19.9511 43.0757 19.9731 43.0958 19.99C43.1159 20.0069 43.1401 20.0181 43.1658 20.0224C43.1917 20.0268 43.2183 20.0241 43.2428 20.0147L45.9578 18.9922C45.9644 19.0299 45.9709 19.0689 45.977 19.1051C46.629 23.2102 46.1512 27.4152 44.5951 31.2698C43.0387 35.1245 40.4625 38.4834 37.1424 40.9871C33.8221 43.4906 29.8829 45.0446 25.7464 45.4825C21.6102 45.9205 17.4326 45.2259 13.661 43.473C17.6157 45.6647 22.107 46.7023 26.623 46.4674C31.139 46.2325 35.4984 44.735 39.204 42.145C42.9098 39.555 45.813 35.9771 47.5829 31.8185C49.3527 27.6601 49.9183 23.0884 49.2147 18.6246L52.3417 18.8782C52.3683 18.8803 52.3946 18.8752 52.4186 18.8634C52.4424 18.8515 52.4624 18.8335 52.4768 18.8111C52.4912 18.7887 52.4991 18.7629 52.5 18.7363C52.5006 18.7098 52.4943 18.6835 52.4812 18.6603L45.8575 6.95181C45.8427 6.92582 45.8202 6.90498 45.7932 6.89211C45.7662 6.87923 45.7359 6.87492 45.7064 6.87975C45.6768 6.88459 45.6495 6.89836 45.6279 6.91917C45.6063 6.94 45.5917 6.96691 45.5861 6.99626Z" fill="black"/>
<path d="M40.7352 33.8113C38.6839 36.4185 36.0493 38.5089 33.0434 39.9147C30.0372 41.3205 26.7433 42.0027 23.4258 41.9064C20.1081 41.8101 16.8593 40.9381 13.94 39.3604C11.0207 37.7825 8.51204 35.5428 6.61552 32.821C4.71897 30.0994 3.48727 26.9712 3.01924 23.6876C2.55124 20.4042 2.85994 17.0569 3.92061 13.9142C4.98125 10.7715 6.76431 7.921 9.1267 5.59143C11.4891 3.26186 14.365 1.51807 17.5238 0.5C13.4535 1.49967 9.74623 3.62244 6.82505 6.62615C3.90386 9.62986 1.88634 13.3936 1.00263 17.4879C0.118924 21.5822 0.404614 25.8423 1.82712 29.7821C3.24963 33.7222 5.75166 37.1831 9.04779 39.7705C12.3439 42.3579 16.3014 43.9674 20.4689 44.4154C24.6363 44.8633 28.8458 44.1319 32.6173 42.3043C36.3888 40.4766 39.5702 37.6267 41.7988 34.0793C44.0272 30.5319 45.2132 26.43 45.2212 22.2415C44.9218 26.4607 43.3587 30.492 40.7352 33.8113Z" fill="black"/>
<path d="M36.0672 11.407C34.7592 13.0718 33.2717 14.5876 31.6316 15.9272C31.615 15.9408 31.6015 15.958 31.5923 15.9774C31.5832 15.9969 31.5784 16.0181 31.5784 16.0396V36.8371C31.5784 37.0044 31.5252 37.1674 31.4264 37.3025C31.3276 37.4378 31.1885 37.538 31.0291 37.589L31.0121 37.5944C30.8939 37.6323 30.7686 37.6417 30.646 37.6219C30.5235 37.6023 30.4073 37.5537 30.3072 37.4807C30.2069 37.4075 30.1253 37.3118 30.0691 37.2014C30.0128 37.0907 29.9836 36.9684 29.9836 36.8445V17.4548C29.9836 17.4281 29.9764 17.402 29.9627 17.3792C29.9489 17.3564 29.9291 17.3378 29.9053 17.3254C29.8818 17.3131 29.8552 17.3075 29.8286 17.3092C29.802 17.3109 29.7763 17.3199 29.7545 17.3352C27.5828 18.8294 25.2153 20.0172 22.7189 20.865C22.6901 20.8746 22.665 20.8931 22.6472 20.9179C22.6295 20.9426 22.6199 20.9722 22.6199 21.0027V37.7992C22.6199 37.9158 22.594 38.0311 22.544 38.1363C22.4941 38.2418 22.4215 38.3348 22.3314 38.4089C22.2412 38.483 22.1357 38.5359 22.0226 38.5645C21.9094 38.5928 21.7913 38.5958 21.6769 38.5732L21.6459 38.5671C21.4674 38.5318 21.3067 38.4355 21.1913 38.2947C21.076 38.154 21.0132 37.9777 21.0136 37.7958C21.0177 35.9873 21.0219 33.5524 21.0249 33.5542V21.5742C21.0249 21.5518 21.0198 21.5298 21.0099 21.5097C21 21.4897 20.9856 21.4722 20.9678 21.4586C20.9501 21.445 20.9295 21.4357 20.9075 21.4314C20.8856 21.427 20.8629 21.4278 20.8413 21.4336L20.7692 21.4526C18.7326 21.9874 16.9307 23.1811 15.6447 24.8472C14.3587 26.5136 13.6612 28.5585 13.661 30.6626V33.4213C13.6614 33.5753 13.6165 33.7263 13.532 33.8551C13.4475 33.9841 13.327 34.0854 13.1855 34.1466C13.0439 34.2076 12.8876 34.2261 12.7357 34.1993C12.5838 34.1727 12.4431 34.1022 12.3309 33.9963C9.20301 30.9921 7.21416 26.9971 6.7032 22.6919C6.19224 18.3868 7.19079 14.0378 9.52874 10.3858C11.8667 6.73378 15.3994 4.00478 19.525 2.66366C23.6506 1.32254 28.1139 1.45227 32.1547 3.03077C28.9732 1.51944 25.4451 0.886315 21.9361 1.19706C18.4273 1.50781 15.0655 2.75111 12.1996 4.79797C9.33375 6.84486 7.06816 9.62073 5.63787 12.8376C4.2076 16.0545 3.66475 19.5953 4.06564 23.0926C4.46653 26.5897 5.79656 29.9161 7.91776 32.7264C10.039 35.5369 12.874 37.7289 16.1289 39.0752C19.3837 40.4213 22.9398 40.8727 26.428 40.3827C29.9165 39.8925 33.2098 38.4784 35.9669 36.2873C36.9287 35.6241 37.8259 34.8717 38.6462 34.0401L38.7323 33.9479C38.8682 33.8023 38.9436 33.6106 38.9432 33.4115V7.75889C38.9432 7.75889 38.9432 7.66738 38.9432 7.54602C38.9434 7.51357 38.9327 7.48198 38.9131 7.45621C38.8932 7.43045 38.8655 7.41197 38.8341 7.40372C38.8028 7.39546 38.7694 7.39788 38.7395 7.41058C38.7096 7.42328 38.685 7.44555 38.6691 7.4739C37.9105 8.85362 37.0403 10.169 36.0672 11.407Z" fill="black"/>
</svg>
